HIERARCHY
ROOT Hips
{
    OFFSET -0.1800 -22.3300 2.8200
    CHANNELS 6 Xposition Yposition Zposition Zrotation Yrotation Xrotation 
    JOINT LeftUpLeg
    {
        OFFSET -0.6800 6.9500 -9.1400
        CHANNELS 3 Zrotation Yrotation Xrotation
        JOINT LeftLeg
        {
            OFFSET -0.4500 3.4300 -37.5200
            CHANNELS 3 Zrotation Yrotation Xrotation
            JOINT LeftFoot
            {
                OFFSET -4.3700 -1.3600 -39.8000
                CHANNELS 3 Zrotation Yrotation Xrotation
                JOINT LeftToe
                {
                    OFFSET 11.9300 2.6400 -5.5800
                    CHANNELS 3 Zrotation Yrotation Xrotation
                    End Site
                    {
                        OFFSET 0.0000 0.0000 0.0000
                    }
                }
            }
        }
    }
    JOINT RightUpLeg
    {
        OFFSET -0.4300 -6.7700 -9.0500
        CHANNELS 3 Zrotation Yrotation Xrotation
        JOINT RightLeg
        {
            OFFSET -0.8900 -3.8300 -38.2600
            CHANNELS 3 Zrotation Yrotation Xrotation
            JOINT RightFoot
            {
                OFFSET -4.2300 1.5800 -39.8400
                CHANNELS 3 Zrotation Yrotation Xrotation
                JOINT RightToe
                {
                    OFFSET 12.3300 -2.5400 -4.8100
                    CHANNELS 3 Zrotation Yrotation Xrotation
                    End Site
                    {
                        OFFSET 0.0000 0.0000 0.0000
                    }
                }
            }
        }
    }
    JOINT Spine
    {
        OFFSET -2.6700 -0.2500 10.9000
        CHANNELS 3 Zrotation Yrotation Xrotation
        JOINT Spine1
        {
            OFFSET 0.1100 0.5500 13.5200
            CHANNELS 3 Zrotation Yrotation Xrotation
            JOINT Spine2
            {
                OFFSET 2.5400 0.1500 5.2900
                CHANNELS 3 Zrotation Yrotation Xrotation
                JOINT Neck
                {
                    OFFSET -4.2900 -0.2800 21.3900
                    CHANNELS 3 Zrotation Yrotation Xrotation
                    JOINT Head
                    {
                        OFFSET 5.1300 0.5200 6.5000
                        CHANNELS 3 Zrotation Yrotation Xrotation
                        End Site
                        {
                            OFFSET 0.0000 0.0000 0.0000
                        }
                    }
                }
                JOINT LeftShoulder
                {
                    OFFSET -3.4100 7.8800 12.1700
                    CHANNELS 3 Zrotation Yrotation Xrotation
                    JOINT LeftArm
                    {
                        OFFSET -0.8900 9.1000 3.0500
                        CHANNELS 3 Zrotation Yrotation Xrotation
                        JOINT LeftForeArm
                        {
                            OFFSET -2.7500 25.9600 -1.2800
                            CHANNELS 3 Zrotation Yrotation Xrotation
                            JOINT LeftHand
                            {
                                OFFSET -1.4900 8.4000 -0.8200
                                CHANNELS 3 Zrotation Yrotation Xrotation
                                End Site
                                {
                                    OFFSET 0.0000 0.0000 0.0000
                                }
                            }
                        }
                    }
                }
                JOINT RightShoulder
                {
                    OFFSET -3.8600 -8.1800 11.8800
                    CHANNELS 3 Zrotation Yrotation Xrotation
                    JOINT RightArm
                    {
                        OFFSET -0.9100 -9.6000 3.2600
                        CHANNELS 3 Zrotation Yrotation Xrotation
                        JOINT RightForeArm
                        {
                            OFFSET -2.1400 -25.3700 -1.3300
                            CHANNELS 3 Zrotation Yrotation Xrotation
                            JOINT RightHand
                            {
                                OFFSET -1.0300 -8.4600 -0.6100
                                CHANNELS 3 Zrotation Yrotation Xrotation
                                End Site
                                {
                                    OFFSET 0.0000 0.0000 0.0000
                                }
                            }
                        }
                    }
                }
            }
        }
    }
}
MOTION
Frames: 13
Frame Time: 0.016667
0.020737 0.276326 0.003064 82.693848 -4.554667 1.030223 -0.048248 3.828726 0.825089 -3.894624 10.393094 -6.462276 15.548346 -10.754443 -3.478845 -2.243694 0.314441 10.232220 -0.442772 6.234761 -3.209963 1.181994 10.073046 6.049185 -7.326841 -14.426209 -3.431904 -5.438014 11.275438 1.905104 -2.566320 10.858873 0.970059 0.379022 2.802514 -1.527059 1.306898 2.838801 -0.172895 2.774440 2.039785 -0.774145 3.011593 0.135935 0.745512 -1.024661 2.201800 -19.045151 -7.664986 0.374198 -49.656570 -60.988560 11.022004 0.181332 -4.865211 -26.415287 -13.613746 3.166266 2.371637 14.323874 13.400565 4.086769 51.168961 59.994263 12.262831 -4.777245 -2.385680 -15.458331 9.052473 
0.035472 0.550592 -0.047529 82.904350 -4.396396 1.138204 -0.344678 3.753682 0.678323 -3.639285 10.706409 -6.273553 15.813827 -9.927254 -2.928263 -2.589889 -0.836578 8.562195 -0.391690 5.895997 -3.082269 0.581326 10.965446 6.070472 -7.691814 -13.720922 -3.803926 -4.871208 9.347119 2.287344 -2.585104 10.849527 0.834593 0.532107 2.386376 -1.068497 1.007078 2.655869 -0.335472 2.985742 2.703322 -0.853990 3.287631 0.229555 1.039265 -1.264859 1.860930 -19.708153 -7.483361 0.142295 -49.398872 -58.404015 12.360472 0.219702 -4.070564 -24.651896 -14.812033 2.994835 2.541319 14.818204 12.898859 3.841413 50.425831 60.501408 12.450920 -4.183196 -2.896777 -17.711668 7.603450 
0.027463 0.803389 -0.110584 83.017212 -4.213821 1.259196 -0.344678 3.753682 0.678323 -3.639285 10.706409 -6.273553 15.813827 -9.927254 -2.928263 -2.589889 -0.836578 8.562195 -0.391690 5.895997 -3.082269 0.581326 10.965446 6.070472 -7.691814 -13.720922 -3.803926 -4.871208 9.347119 2.287344 -2.585104 10.849527 0.834593 0.532107 2.386376 -1.068497 1.007078 2.655869 -0.335472 2.985742 2.703322 -0.853990 3.287631 0.229555 1.039265 -1.264859 1.860930 -19.708153 -7.483361 0.142295 -49.398872 -58.404015 12.360472 0.219702 -4.070564 -24.651896 -14.812033 2.994835 2.541319 14.818204 12.898859 3.841413 50.425831 60.501408 12.450920 -4.183196 -2.896777 -17.711668 7.603450 
0.010336 1.035966 -0.142300 82.966377 -3.979221 1.417162 0.405818 3.658347 0.709152 -4.440018 10.785607 -6.851875 15.771297 -10.697559 -3.658663 -2.795513 -2.976142 9.335832 0.272942 5.956339 -3.032211 0.191539 10.829474 5.543591 -8.019082 -14.267587 -4.027439 -4.891119 9.464855 2.991808 -2.889967 10.701508 0.714617 0.390426 2.363184 -1.288492 1.054847 2.564475 -0.279282 2.887328 1.940730 -0.668737 4.080110 1.031993 0.682974 -1.256770 2.433183 -20.168451 -7.534068 0.218308 -48.786381 -59.635929 11.419051 0.139781 -5.373253 -23.991478 -13.086722 3.214971 2.252404 15.087312 13.115941 4.295890 49.787403 60.768764 11.610903 -3.753299 -1.553234 -14.302415 7.500659 
0.020352 1.299712 -0.142676 82.889542 -3.910176 1.524535 0.405818 3.658347 0.709152 -4.440018 10.785607 -6.851875 15.771297 -10.697559 -3.658663 -2.795513 -2.976142 9.335832 0.272942 5.956339 -3.032211 0.191539 10.829474 5.543591 -8.019082 -14.267587 -4.027439 -4.891119 9.464855 2.991808 -2.889967 10.701508 0.714617 0.390426 2.363184 -1.288492 1.054847 2.564475 -0.279282 2.887328 1.940730 -0.668737 4.080110 1.031993 0.682974 -1.256770 2.433183 -20.168451 -7.534068 0.218308 -48.786381 -59.635929 11.419051 0.139781 -5.373253 -23.991478 -13.086722 3.214971 2.252404 15.087312 13.115941 4.295890 49.787403 60.768764 11.610903 -3.753299 -1.553234 -14.302415 7.500659 
0.037800 1.552062 -0.079548 82.760941 -3.967115 1.482985 0.355796 3.546678 0.482090 -4.473203 11.575872 -6.827579 16.068535 -10.924013 -3.827729 -2.593861 -1.220673 10.461328 0.529070 5.974836 -3.091013 0.413971 11.419674 5.650315 -8.660767 -14.362945 -3.506894 -4.723228 8.462470 2.866248 -2.847460 10.870304 0.712128 0.498590 2.498326 -1.270433 1.130166 2.572673 -0.121846 2.762667 2.138590 -0.565570 3.997323 0.859496 0.658751 -1.444172 2.455249 -20.018826 -7.761530 -0.208946 -49.045238 -60.088715 11.446284 -0.238209 -4.895209 -24.708042 -16.533041 3.198525 1.991621 14.869632 13.025978 4.067727 49.780228 60.983189 10.914225 -4.707951 -2.052376 -13.808338 7.530081 
0.046249 1.811275 0.035250 82.638977 -4.077198 1.344522 0.355796 3.546678 0.482090 -4.473203 11.575872 -6.827579 16.068535 -10.924013 -3.827729 -2.593861 -1.220673 10.461328 0.529070 5.974836 -3.091013 0.413971 11.419674 5.650315 -8.660767 -14.362945 -3.506894 -4.723228 8.462470 2.866248 -2.847460 10.870304 0.712128 0.498590 2.498326 -1.270433 1.130166 2.572673 -0.121846 2.762667 2.138590 -0.565570 3.997323 0.859496 0.658751 -1.444172 2.455249 -20.018826 -7.761530 -0.208946 -49.045238 -60.088715 11.446284 -0.238209 -4.895209 -24.708042 -16.533041 3.198525 1.991621 14.869632 13.025978 4.067727 49.780228 60.983189 10.914225 -4.707951 -2.052376 -13.808338 7.530081 
0.029032 2.058329 0.093830 82.766472 -4.209724 1.233640 0.862107 3.786122 0.713035 -3.754068 12.039256 -6.913608 16.594959 -10.118127 -3.198954 -4.318121 -1.627905 9.503020 1.006320 5.812394 -2.585597 -0.431618 12.820597 5.448138 -8.984236 -14.517027 -4.993510 -3.229971 10.323887 4.824032 -3.077181 11.509837 0.989246 0.630539 2.129816 -1.347401 1.411456 2.213005 -0.082850 3.302593 2.839250 0.173014 3.692960 1.109700 0.295156 -1.523867 2.356415 -19.997486 -8.013887 -0.692061 -49.199238 -57.854897 12.092050 -0.443623 -6.561431 -23.825415 -15.453454 2.675507 1.599813 15.254102 13.233142 4.497732 49.631695 60.799110 12.421360 -4.817360 -1.113280 -10.918009 5.489476 
0.011057 2.213839 0.087893 82.616257 -3.994874 1.192667 0.862107 3.786122 0.713035 -3.754068 12.039256 -6.913608 16.594959 -10.118127 -3.198954 -4.318121 -1.627905 9.503020 1.006320 5.812394 -2.585597 -0.431618 12.820597 5.448138 -8.984236 -14.517027 -4.993510 -3.229971 10.323887 4.824032 -3.077181 11.509837 0.989246 0.630539 2.129816 -1.347401 1.411456 2.213005 -0.082850 3.302593 2.839250 0.173014 3.692960 1.109700 0.295156 -1.523867 2.356415 -19.997486 -8.013887 -0.692061 -49.199238 -57.854897 12.092050 -0.443623 -6.561431 -23.825415 -15.453454 2.675507 1.599813 15.254102 13.233142 4.497732 49.631695 60.799110 12.421360 -4.817360 -1.113280 -10.918009 5.489476 
0.082791 2.436376 0.067288 82.070847 -3.863892 1.130001 1.420114 3.836323 0.435290 -3.571112 11.908218 -6.095975 17.192324 -9.578952 -4.111744 -5.382402 -3.395115 9.021651 -0.017337 4.706063 -3.033812 -1.705926 10.686301 4.537699 -11.028849 -15.928094 -3.587217 -7.133479 8.879499 5.630828 -2.865210 11.412539 1.190184 0.801205 2.281957 -0.943411 1.268245 1.989885 -0.393024 3.498412 2.338866 -0.429189 4.646894 1.564923 0.533328 -2.434083 2.671846 -21.342182 -7.555474 -0.505201 -48.287861 -58.837635 10.230708 0.530688 -4.991745 -26.256922 -16.902988 3.511034 0.954434 15.824782 13.171030 4.224477 48.595963 58.919319 9.852336 -4.194928 -1.604924 -12.162306 3.435502 
0.219768 2.746091 0.077659 82.033379 -3.907502 1.170426 1.420114 3.836323 0.435290 -3.571112 11.908218 -6.095975 17.192324 -9.578952 -4.111744 -5.382402 -3.395115 9.021651 -0.017337 4.706063 -3.033812 -1.705926 10.686301 4.537699 -11.028849 -15.928094 -3.587217 -7.133479 8.879499 5.630828 -2.865210 11.412539 1.190184 0.801205 2.281957 -0.943411 1.268245 1.989885 -0.393024 3.498412 2.338866 -0.429189 4.646894 1.564923 0.533328 -2.434083 2.671846 -21.342182 -7.555474 -0.505201 -48.287861 -58.837635 10.230708 0.530688 -4.991745 -26.256922 -16.902988 3.511034 0.954434 15.824782 13.171030 4.224477 48.595963 58.919319 9.852336 -4.194928 -1.604924 -12.162306 3.435502 
0.366852 3.057082 0.160182 81.576866 -3.867975 1.310084 1.732533 3.272796 0.387252 -3.348152 13.768998 -6.139949 16.788717 -9.042394 -4.382310 -4.985288 -7.060150 7.700953 -0.022983 5.160861 -3.507274 -1.854912 9.631638 4.551434 -10.711192 -14.634870 -1.927378 -1.635490 9.860278 8.741523 -2.994618 11.603436 0.810473 0.706498 1.935391 -0.885134 0.946089 2.363906 -0.207318 3.554298 1.763664 -1.121947 5.826628 2.096371 0.043426 -2.130497 2.809780 -20.898027 -6.961684 -0.624538 -48.184628 -58.941223 10.896016 0.486613 -5.832996 -21.822878 -18.259851 3.973130 0.656494 15.983932 13.232260 4.165697 48.216583 59.558132 9.796458 -3.533386 -1.065679 -14.254141 5.454300 
0.459297 3.407871 0.356978 81.193886 -4.030080 1.428292 1.732533 3.272796 0.387252 -3.348152 13.768998 -6.139949 16.788717 -9.042394 -4.382310 -4.985288 -7.060150 7.700953 -0.022983 5.160861 -3.507274 -1.854912 9.631638 4.551434 -10.711192 -14.634870 -1.927378 -1.635490 9.860278 8.741523 -2.994618 11.603436 0.810473 0.706498 1.935391 -0.885134 0.946089 2.363906 -0.207318 3.554298 1.763664 -1.121947 5.826628 2.096371 0.043426 -2.130497 2.809780 -20.898027 -6.961684 -0.624538 -48.184628 -58.941223 10.896016 0.486613 -5.832996 -21.822878 -18.259851 3.973130 0.656494 15.983932 13.232260 4.165697 48.216583 59.558132 9.796458 -3.533386 -1.065679 -14.254141 5.454300 
